# xmcd CD database file
#
# Track frame offsets:
#	150
#	18038
#	34770
#	51935
#	63906
#	86130
#	104441
#	116706
#	128468
#	153711
#	175913
#	190014
#
# Disc length: 2774 seconds
#
# Revision: 0
# Processed by: cddbd v1.5.2PL0 Copyright (c) Steve Scherf et al.
# Submitted via: CDex 1.51
#
DISCID=980ad40c
DTITLE=Mon Dyh - Confused Mind
DYEAR=1982
DGENRE=Blues
TTITLE0=Confused Mind
TTITLE1=Blues between the Birth
TTITLE2=Guardian's Daughter
TTITLE3=Love Song
TTITLE4=Who'll be the next
TTITLE5=I hate ya'
TTITLE6=Involuntary Chase
TTITLE7=But I don't care
TTITLE8=Record God
TTITLE9=Sunny Day
TTITLE10=Heartbeat
TTITLE11=Confused Mind (single version)
EXTD=YEAR: 1982
EXTT0=
EXTT1=
EXTT2=
EXTT3=
EXTT4=
EXTT5=
EXTT6=
EXTT7=
EXTT8=
EXTT9=
EXTT10=
EXTT11=
PLAYORDER=
